<svg xmlns="http://www.w3.org/2000/svg" width="187" height="100" fill="none"><path fill="#AFAFAF" d="M90.824 72V60.8h4.192c.95 0 1.765.155 2.448.464.683.299 1.205.736 1.568 1.312.373.565.56 1.253.56 2.064 0 .79-.187 1.472-.56 2.048-.363.565-.885 1.003-1.568 1.312-.683.31-1.499.464-2.448.464H91.48l.528-.56V72h-1.184Zm1.184-4-.528-.576h3.504c1.12 0 1.968-.24 2.544-.72.587-.49.88-1.179.88-2.064 0-.896-.293-1.59-.88-2.08-.576-.49-1.424-.736-2.544-.736H91.48l.528-.56V68Zm13.525 4.08c-.874 0-1.642-.181-2.304-.544a4.093 4.093 0 0 1-1.552-1.52c-.373-.65-.56-1.392-.56-2.224 0-.832.176-1.568.528-2.208a3.994 3.994 0 0 1 1.472-1.504 4.065 4.065 0 0 1 2.112-.56c.79 0 1.488.181 2.096.544a3.73 3.73 0 0 1 1.456 1.504c.352.64.528 1.381.528 2.224 0 .053-.005.112-.016.176v.176h-7.312v-.848h6.704l-.448.336c0-.608-.133-1.147-.4-1.616a2.815 2.815 0 0 0-1.056-1.12c-.448-.267-.965-.4-1.552-.4-.576 0-1.093.133-1.552.4-.458.267-.816.64-1.072 1.12-.256.48-.384 1.03-.384 1.648v.176c0 .64.139 1.205.416 1.696.288.48.683.859 1.184 1.136.512.267 1.094.4 1.744.4.512 0 .987-.09 1.424-.272a2.962 2.962 0 0 0 1.152-.832l.64.736c-.373.448-.842.79-1.408 1.024a4.673 4.673 0 0 1-1.84.352Zm6.189-.08v-8.4h1.088v2.288l-.112-.4c.234-.64.629-1.125 1.184-1.456.554-.341 1.242-.512 2.064-.512v1.104h-.128a.53.53 0 0 0-.128-.016c-.886 0-1.579.272-2.08.816-.502.533-.752 1.296-.752 2.288V72h-1.136Zm8.825 1.6 5.28-15.072h1.04l-5.28 15.072h-1.04Zm22.227-10.08c.682 0 1.274.133 1.776.4.512.256.906.65 1.184 1.184.288.533.432 1.205.432 2.016V72h-1.136v-4.768c0-.885-.214-1.552-.64-2-.416-.459-1.008-.688-1.776-.688-.576 0-1.078.123-1.504.368a2.424 2.424 0 0 0-.976 1.04c-.224.448-.336.992-.336 1.632V72h-1.136v-4.768c0-.885-.214-1.552-.64-2-.427-.459-1.024-.688-1.792-.688-.566 0-1.062.123-1.488.368a2.395 2.395 0 0 0-.992 1.04c-.224.448-.336.992-.336 1.632V72h-1.136v-8.4h1.088v2.272l-.176-.4a2.967 2.967 0 0 1 1.232-1.424c.576-.352 1.253-.528 2.032-.528.821 0 1.52.208 2.096.624.576.405.949 1.019 1.12 1.84l-.448-.176a3.279 3.279 0 0 1 1.296-1.648c.629-.427 1.381-.64 2.256-.64Zm9.997 8.56c-.811 0-1.542-.181-2.192-.544a4.152 4.152 0 0 1-1.52-1.52c-.374-.65-.56-1.392-.56-2.224 0-.843.186-1.584.56-2.224.373-.64.88-1.141 1.52-1.504s1.37-.544 2.192-.544c.832 0 1.568.181 2.208.544.65.363 1.157.864 1.52 1.504.373.64.56 1.381.56 2.224 0 .832-.187 1.573-.56 2.224a4.007 4.007 0 0 1-1.52 1.52c-.651.363-1.387.544-2.208.544Zm0-1.008c.608 0 1.146-.133 1.616-.4a2.946 2.946 0 0 0 1.104-1.152c.277-.501.416-1.077.416-1.728 0-.661-.139-1.237-.416-1.728a2.835 2.835 0 0 0-1.104-1.136 3.088 3.088 0 0 0-1.6-.416c-.598 0-1.131.139-1.6.416-.47.267-.843.645-1.12 1.136-.278.49-.416 1.067-.416 1.728 0 .65.138 1.227.416 1.728.277.49.65.875 1.12 1.152.469.267.997.4 1.584.4Zm10.995-7.552c.682 0 1.28.133 1.792.4.522.256.928.65 1.216 1.184.298.533.448 1.205.448 2.016V72h-1.136v-4.768c0-.885-.224-1.552-.672-2-.438-.459-1.056-.688-1.856-.688-.598 0-1.12.123-1.568.368a2.464 2.464 0 0 0-1.024 1.04c-.235.448-.352.992-.352 1.632V72h-1.136v-8.4h1.088v2.304l-.176-.432a3.009 3.009 0 0 1 1.28-1.424c.586-.352 1.285-.528 2.096-.528Zm9.28 8.56c-.789 0-1.397-.213-1.824-.64-.426-.427-.64-1.03-.64-1.808v-7.888h1.136v7.824c0 .49.123.87.368 1.136.256.267.619.4 1.088.4.502 0 .918-.144 1.248-.432l.4.816a2.092 2.092 0 0 1-.816.448 3.217 3.217 0 0 1-.96.144Zm-3.968-7.536V63.6h5.2v.944h-5.2Zm12.2-1.024c.683 0 1.28.133 1.792.4.523.256.928.65 1.216 1.184.299.533.448 1.205.448 2.016V72h-1.136v-4.768c0-.885-.224-1.552-.672-2-.437-.459-1.056-.688-1.856-.688-.597 0-1.12.123-1.568.368a2.476 2.476 0 0 0-1.024 1.04c-.234.448-.352.992-.352 1.632V72h-1.136V60.128h1.136v5.776l-.224-.432a3.019 3.019 0 0 1 1.28-1.424c.587-.352 1.286-.528 2.096-.528Z"/><path fill="#02897A" d="M11.4 77V28.36l5.32 5.32H.76V23.8h22.952V77H11.4Zm44.554.912c-4.358 0-8.259-1.064-11.704-3.192-3.446-2.179-6.156-5.32-8.132-9.424-1.976-4.104-2.964-9.07-2.964-14.896 0-5.827.988-10.792 2.964-14.896 1.976-4.104 4.686-7.22 8.132-9.348 3.445-2.179 7.346-3.268 11.704-3.268 4.408 0 8.31 1.09 11.704 3.268 3.445 2.128 6.156 5.244 8.132 9.348 1.976 4.104 2.964 9.07 2.964 14.896 0 5.827-.988 10.792-2.964 14.896-1.976 4.104-4.687 7.245-8.132 9.424-3.395 2.128-7.296 3.192-11.704 3.192Zm0-10.412c2.077 0 3.876-.583 5.396-1.748 1.57-1.165 2.786-3.015 3.648-5.548.912-2.533 1.368-5.801 1.368-9.804s-.456-7.27-1.368-9.804c-.862-2.533-2.078-4.383-3.648-5.548-1.52-1.165-3.319-1.748-5.396-1.748-2.027 0-3.825.583-5.396 1.748-1.52 1.165-2.736 3.015-3.648 5.548-.861 2.533-1.292 5.801-1.292 9.804s.43 7.27 1.292 9.804c.912 2.533 2.128 4.383 3.648 5.548 1.57 1.165 3.37 1.748 5.396 1.748ZM95.648 50.88V28.32h2.4v22.56h-2.4Zm.864-2.592c-1.344 0-2.632-.176-3.864-.528-1.232-.368-2.224-.84-2.976-1.416l1.32-2.928c.72.512 1.568.936 2.544 1.272.992.32 1.992.48 3 .48.768 0 1.384-.072 1.848-.216.48-.16.832-.376 1.056-.648a1.43 1.43 0 0 0 .336-.936c0-.448-.176-.8-.528-1.056-.352-.272-.816-.488-1.392-.648a20.999 20.999 0 0 0-1.92-.48 27.233 27.233 0 0 1-2.088-.576 8.91 8.91 0 0 1-1.896-.864 4.358 4.358 0 0 1-1.416-1.392c-.352-.576-.528-1.312-.528-2.208 0-.96.256-1.832.768-2.616.528-.8 1.312-1.432 2.352-1.896 1.056-.48 2.376-.72 3.96-.72 1.056 0 2.096.128 3.12.384 1.024.24 1.928.608 2.712 1.104l-1.2 2.952a9.82 9.82 0 0 0-2.352-.984 8.363 8.363 0 0 0-2.304-.336c-.752 0-1.368.088-1.848.264-.48.176-.824.408-1.032.696a1.535 1.535 0 0 0-.312.96c0 .432.176.784.528 1.056.352.256.816.464 1.392.624.576.16 1.208.32 1.896.48.704.16 1.4.344 2.088.552a8.02 8.02 0 0 1 1.92.84c.576.352 1.04.816 1.392 1.392.368.576.552 1.304.552 2.184 0 .944-.264 1.808-.792 2.592s-1.32 1.416-2.376 1.896c-1.04.48-2.36.72-3.96.72Z"/></svg>