<svg xmlns="http://www.w3.org/2000/svg" width="157" height="100" fill="none"><path fill="#AFAFAF" d="M60.824 72V60.8h4.192c.95 0 1.765.155 2.448.464.683.299 1.205.736 1.568 1.312.373.565.56 1.253.56 2.064 0 .79-.187 1.472-.56 2.048-.363.565-.885 1.003-1.568 1.312-.683.31-1.499.464-2.448.464H61.48l.528-.56V72h-1.184Zm1.184-4-.528-.576h3.504c1.12 0 1.968-.24 2.544-.72.587-.49.88-1.179.88-2.064 0-.896-.293-1.59-.88-2.08-.576-.49-1.424-.736-2.544-.736H61.48l.528-.56V68Zm13.525 4.08c-.874 0-1.642-.181-2.304-.544a4.085 4.085 0 0 1-1.552-1.52c-.373-.65-.56-1.392-.56-2.224 0-.832.176-1.568.528-2.208a3.986 3.986 0 0 1 1.472-1.504 4.061 4.061 0 0 1 2.112-.56c.79 0 1.488.181 2.096.544a3.732 3.732 0 0 1 1.456 1.504c.352.64.528 1.381.528 2.224 0 .053-.005.112-.016.176v.176h-7.312v-.848h6.704l-.448.336c0-.608-.133-1.147-.4-1.616a2.815 2.815 0 0 0-1.056-1.12c-.448-.267-.965-.4-1.552-.4a3.03 3.03 0 0 0-1.552.4 2.78 2.78 0 0 0-1.072 1.12c-.256.48-.384 1.03-.384 1.648v.176c0 .64.139 1.205.416 1.696.288.48.683.859 1.184 1.136.512.267 1.094.4 1.744.4.512 0 .987-.09 1.424-.272a2.962 2.962 0 0 0 1.152-.832l.64.736c-.373.448-.842.79-1.408 1.024a4.676 4.676 0 0 1-1.84.352Zm6.189-.08v-8.4h1.088v2.288l-.112-.4c.234-.64.629-1.125 1.184-1.456.554-.341 1.242-.512 2.063-.512v1.104h-.127a.524.524 0 0 0-.129-.016c-.885 0-1.578.272-2.08.816-.5.533-.751 1.296-.751 2.288V72h-1.136Zm8.825 1.6 5.28-15.072h1.04L91.587 73.6h-1.04Zm22.227-10.08c.682 0 1.274.133 1.776.4.512.256.906.65 1.184 1.184.288.533.432 1.205.432 2.016V72h-1.136v-4.768c0-.885-.214-1.552-.64-2-.416-.459-1.008-.688-1.776-.688-.576 0-1.078.123-1.504.368a2.424 2.424 0 0 0-.976 1.04c-.224.448-.336.992-.336 1.632V72h-1.136v-4.768c0-.885-.214-1.552-.64-2-.427-.459-1.024-.688-1.792-.688-.566 0-1.062.123-1.488.368a2.395 2.395 0 0 0-.992 1.04c-.224.448-.336.992-.336 1.632V72h-1.136v-8.4h1.088v2.272l-.176-.4a2.967 2.967 0 0 1 1.232-1.424c.576-.352 1.253-.528 2.032-.528.821 0 1.52.208 2.096.624.576.405.949 1.019 1.12 1.84l-.448-.176a3.279 3.279 0 0 1 1.296-1.648c.629-.427 1.381-.64 2.256-.64Zm9.997 8.56c-.811 0-1.542-.181-2.192-.544a4.152 4.152 0 0 1-1.52-1.52c-.374-.65-.56-1.392-.56-2.224 0-.843.186-1.584.56-2.224.373-.64.88-1.141 1.52-1.504s1.37-.544 2.192-.544c.832 0 1.568.181 2.208.544.65.363 1.157.864 1.52 1.504.373.64.56 1.381.56 2.224 0 .832-.187 1.573-.56 2.224a4.007 4.007 0 0 1-1.52 1.52c-.651.363-1.387.544-2.208.544Zm0-1.008c.608 0 1.146-.133 1.616-.4a2.946 2.946 0 0 0 1.104-1.152c.277-.501.416-1.077.416-1.728 0-.661-.139-1.237-.416-1.728a2.835 2.835 0 0 0-1.104-1.136 3.088 3.088 0 0 0-1.6-.416c-.598 0-1.131.139-1.6.416-.47.267-.843.645-1.12 1.136-.278.49-.416 1.067-.416 1.728 0 .65.138 1.227.416 1.728.277.49.65.875 1.12 1.152.469.267.997.4 1.584.4Zm10.995-7.552c.682 0 1.28.133 1.792.4.522.256.928.65 1.216 1.184.298.533.448 1.205.448 2.016V72h-1.136v-4.768c0-.885-.224-1.552-.672-2-.438-.459-1.056-.688-1.856-.688-.598 0-1.12.123-1.568.368a2.464 2.464 0 0 0-1.024 1.04c-.235.448-.352.992-.352 1.632V72h-1.136v-8.4h1.088v2.304l-.176-.432a3.009 3.009 0 0 1 1.28-1.424c.586-.352 1.285-.528 2.096-.528Zm9.28 8.56c-.789 0-1.397-.213-1.824-.64-.426-.427-.64-1.03-.64-1.808v-7.888h1.136v7.824c0 .49.123.87.368 1.136.256.267.619.4 1.088.4.502 0 .918-.144 1.248-.432l.4.816a2.092 2.092 0 0 1-.816.448 3.217 3.217 0 0 1-.96.144Zm-3.968-7.536V63.6h5.2v.944h-5.2Zm12.2-1.024c.683 0 1.28.133 1.792.4.523.256.928.65 1.216 1.184.299.533.448 1.205.448 2.016V72h-1.136v-4.768c0-.885-.224-1.552-.672-2-.437-.459-1.056-.688-1.856-.688-.597 0-1.12.123-1.568.368a2.476 2.476 0 0 0-1.024 1.04c-.234.448-.352.992-.352 1.632V72h-1.136V60.128h1.136v5.776l-.224-.432a3.019 3.019 0 0 1 1.28-1.424c.587-.352 1.286-.528 2.096-.528Z"/><path fill="#02897A" d="M25.973 77.912c-4.357 0-8.259-1.064-11.704-3.192-3.445-2.179-6.156-5.32-8.132-9.424-1.976-4.104-2.964-9.07-2.964-14.896 0-5.827.988-10.792 2.964-14.896 1.976-4.104 4.687-7.22 8.132-9.348 3.445-2.179 7.347-3.268 11.704-3.268 4.408 0 8.31 1.09 11.704 3.268 3.445 2.128 6.156 5.244 8.132 9.348 1.976 4.104 2.964 9.07 2.964 14.896 0 5.827-.988 10.792-2.964 14.896-1.976 4.104-4.687 7.245-8.132 9.424-3.395 2.128-7.296 3.192-11.704 3.192Zm0-10.412c2.077 0 3.876-.583 5.396-1.748 1.57-1.165 2.787-3.015 3.648-5.548.912-2.533 1.368-5.801 1.368-9.804s-.456-7.27-1.368-9.804c-.861-2.533-2.077-4.383-3.648-5.548-1.52-1.165-3.319-1.748-5.396-1.748-2.027 0-3.825.583-5.396 1.748-1.52 1.165-2.736 3.015-3.648 5.548-.861 2.533-1.292 5.801-1.292 9.804s.43 7.27 1.292 9.804c.912 2.533 2.128 4.383 3.648 5.548 1.57 1.165 3.37 1.748 5.396 1.748ZM65.895 50.182h2.011l.017-1.969c3.69-.281 5.83-2.241 5.838-5.199-.008-2.906-2.198-4.449-5.233-5.13l-.502-.12.034-4.261c1.133.264 1.823.989 1.926 2.062h3.537c-.043-2.82-2.148-4.84-5.43-5.198l.018-2.003h-2.012l-.017 1.985c-3.332.324-5.684 2.336-5.667 5.242-.009 2.574 1.807 4.048 4.756 4.756l.818.204-.043 4.509c-1.39-.265-2.327-1.117-2.42-2.54h-3.572c.086 3.443 2.344 5.37 5.958 5.684l-.017 1.978Zm2.062-5.122.035-3.98c1.32.417 2.036.954 2.045 1.926-.009 1.03-.793 1.798-2.08 2.054Zm-1.943-7.816c-1.065-.366-1.832-.92-1.815-1.9 0-.912.648-1.62 1.85-1.867l-.035 3.767Z"/></svg>